<svg width="16" height="16" viewBox="0 0 16 16" fill="none" xmlns="http://www.w3.org/2000/svg">
<path d="M7.0024 16C6.71979 16 6.48307 15.904 6.29222 15.712C6.10072 15.5207 6.00496 15.2833 6.00496 15V9L0.21985 1.6C-0.0295087 1.26667 -0.0667462 0.916667 0.108137 0.55C0.282355 0.183333 0.585575 0 1.0178 0L14.9819 0C15.4141 0 15.7176 0.183333 15.8925 0.55C16.0667 0.916667 16.0292 1.26667 15.7798 1.6L9.99469 9V15C9.99469 15.2833 9.89927 15.5207 9.70843 15.712C9.51692 15.904 9.27987 16 8.99726 16H7.0024Z" fill="white"/>
</svg>
