<svg width="147" height="65" viewBox="0 0 147 65" fill="none" xmlns="http://www.w3.org/2000/svg">
<g filter="url(#filter0_d_201_3025)">
<path d="M76.5752 1H118.933L141.562 62H76.5752H5.4774L29.8937 1H76.5752Z" stroke="#5097D9" strokeWidth="2" shapeRendering="crispEdges"/>
</g>
<g filter="url(#filter1_di_201_3025)">
<path d="M76.354 4H116.31L138 60H76.354H9L32.4027 4H76.354Z" fill="url(#paint0_linear_201_3025)"/>
</g>
<path d="M42.4392 36.24H41.7992L42.2992 36.74C41.6992 37.56 40.9592 38.18 40.0792 38.6C39.1992 39.04 38.1992 39.24 37.0992 39.24C35.8792 39.24 34.7792 38.98 33.8192 38.44C32.8592 37.92 32.0792 37.18 31.4792 36.24H32.1192C32.0192 36.12 31.9192 35.96 31.8392 35.8C31.9192 35.24 31.9192 34.72 31.7992 34.22C31.6792 33.74 31.5592 33.26 31.4192 32.8C31.2792 32.34 31.1592 31.88 31.0792 31.42C30.9992 30.98 31.0192 30.5 31.1592 30.02C31.1792 29.94 31.1992 29.88 31.2192 29.8C31.2192 29.72 31.2392 29.64 31.2792 29.56C31.2992 29.5 31.3192 29.42 31.3592 29.34C31.3792 29.26 31.3992 29.2 31.4392 29.12H32.3592C32.5992 28.48 32.9392 27.88 33.3592 27.34C33.7592 26.82 34.2392 26.36 34.7792 25.98C35.3192 25.62 35.9192 25.32 36.5792 25.12C37.2192 24.92 37.9192 24.8 38.6592 24.8C39.7392 24.8 40.7392 25.02 41.6192 25.44C42.4992 25.88 43.2392 26.48 43.8392 27.28L42.0592 29.12H41.9192C41.0792 28.08 40.0392 27.56 38.8192 27.56C38.1392 27.56 37.5192 27.7 36.9992 27.98C36.4592 28.26 36.0192 28.64 35.6592 29.12H34.7392C34.6392 29.26 34.5592 29.4 34.4792 29.52C34.3992 29.66 34.3392 29.8 34.2792 29.96C34.1992 30.1 34.1392 30.26 34.0992 30.42C33.9392 30.66 33.8792 30.92 33.8992 31.18C33.8992 31.46 34.0392 31.72 34.2992 32C34.3392 32.12 34.3992 32.22 34.4392 32.32C34.4792 32.42 34.5392 32.52 34.5792 32.6C34.6992 32.68 34.7992 32.78 34.8392 32.94C34.8792 33.1 34.9192 33.26 34.9192 33.46C34.9192 33.66 34.9192 33.88 34.9192 34.1C34.9192 34.34 34.9192 34.56 34.9592 34.76C34.9792 34.98 35.0392 35.18 35.1392 35.36C35.2192 35.54 35.3792 35.68 35.5992 35.78C35.7192 35.88 35.8592 35.96 36.0392 36.04C36.0992 36.08 36.1792 36.12 36.2592 36.16C36.3392 36.2 36.4192 36.22 36.4992 36.24H35.8592C36.2992 36.4 36.7592 36.48 37.2592 36.48C37.7392 36.48 38.1792 36.4 38.6192 36.24H39.2592C39.9192 36 40.5192 35.52 41.0592 34.82L42.4392 36.24ZM57.397 29.12V30.96V31.38L57.477 31.62L57.557 31.86C57.577 31.94 57.597 32.04 57.617 32.12C57.637 32.2 57.657 32.28 57.697 32.36C57.857 32.7 57.937 33.02 57.957 33.3C57.957 33.6 57.937 33.94 57.877 34.3L57.817 34.78C57.737 35.3 57.637 35.78 57.497 36.22H56.697C56.437 36.22 56.177 36.24 55.937 36.24H55.677H56.017H56.557C56.617 36.24 56.677 36.26 56.717 36.26C56.757 36.28 56.757 36.34 56.757 36.44V36.96V39H53.857V36.24H54.477V36.02C54.437 35.82 54.417 35.58 54.457 35.34C54.497 35.1 54.557 34.88 54.657 34.66C54.737 34.44 54.857 34.24 54.977 34.04C55.097 33.86 55.217 33.7 55.357 33.56C54.817 33.44 54.277 33.38 53.757 33.4C53.237 33.44 52.697 33.46 52.177 33.5C51.637 33.54 51.097 33.52 50.577 33.48C50.057 33.44 49.517 33.3 48.997 33.02C48.997 33.3 48.977 33.56 48.957 33.84C48.937 34.12 48.877 34.42 48.777 34.76V35.12V36.24H48.137V39H45.237V36.24H45.857V35.12V34.78C45.977 34.34 46.077 33.92 46.197 33.5C46.317 33.08 46.377 32.66 46.417 32.24C46.457 31.82 46.437 31.4 46.357 30.96C46.277 30.54 46.117 30.1 45.877 29.64C45.857 29.56 45.857 29.5 45.857 29.44V29.26V29.12H46.777V25.04H49.697V29.12H48.777V29.34C48.977 29.78 49.237 30.1 49.517 30.26C49.797 30.42 50.097 30.52 50.417 30.54C50.737 30.56 51.077 30.52 51.437 30.44C51.797 30.36 52.137 30.28 52.497 30.2C52.857 30.12 53.197 30.08 53.537 30.08C53.857 30.08 54.177 30.16 54.477 30.32V29.84V29.12H55.397V25.04H58.317V29.12H57.397ZM73.8617 39H70.8017L69.7817 36.24H70.4017L70.3217 36H64.4817L64.3817 36.24H63.7617L62.7417 39H59.7417L60.8617 36.24H61.4817C61.4817 36.22 61.5017 36.18 61.5217 36.14C61.5217 36.1 61.5617 36 61.6417 35.84C61.6617 35.78 61.6817 35.72 61.7217 35.64C61.7617 35.56 61.7817 35.48 61.8217 35.4C62.1017 34.96 62.3417 34.52 62.5017 34.08C62.6617 33.64 62.8217 33.22 62.9417 32.82C63.0617 32.42 63.1817 32.02 63.3017 31.64C63.4217 31.28 63.5817 30.9 63.7817 30.54C63.8217 30.44 63.8617 30.34 63.9017 30.24C63.9417 30.16 63.9617 30.06 64.0017 29.96C64.0417 29.84 64.1017 29.72 64.1417 29.6C64.1817 29.5 64.2217 29.42 64.2617 29.34C64.3017 29.26 64.3217 29.2 64.3417 29.12H65.2617L66.9017 25.04H69.7817L71.4217 29.12H70.5017C70.5217 29.2 70.5617 29.26 70.6017 29.34C70.6217 29.42 70.6617 29.5 70.7017 29.6C70.7417 29.72 70.7817 29.84 70.8417 29.96C70.8817 30.06 70.9017 30.16 70.9417 30.24C70.9817 30.34 71.0217 30.44 71.0817 30.54C71.5417 31.26 71.9217 32.02 72.2017 32.82C72.4817 33.62 72.7617 34.48 73.0417 35.4C73.0617 35.48 73.0817 35.56 73.1217 35.64C73.1617 35.72 73.1817 35.78 73.2217 35.84C73.2417 35.92 73.2617 35.98 73.2817 36.02C73.3017 36.08 73.3217 36.12 73.3417 36.14C73.3417 36.18 73.3617 36.22 73.3817 36.24H72.7417L73.8617 39ZM67.9817 29.12H68.6617L68.3217 28.22L67.9817 29.12ZM69.8817 33.56C69.6017 33.44 69.4217 33.24 69.3217 33C69.2217 32.76 69.1417 32.48 69.0817 32.2C69.0217 31.92 68.9417 31.66 68.8617 31.38C68.7617 31.1 68.5817 30.88 68.3417 30.68C68.2817 30.58 68.2417 30.48 68.2017 30.38C68.1617 30.28 68.1417 30.18 68.1017 30.08C68.0417 29.94 67.9817 29.82 67.9417 29.7C67.9017 29.6 67.8617 29.5 67.8417 29.4C67.8017 29.32 67.7617 29.22 67.7417 29.12H67.0617C67.0217 29.22 67.0017 29.32 66.9617 29.4C66.9217 29.5 66.8817 29.6 66.8417 29.7C66.8017 29.82 66.7417 29.94 66.7017 30.08C66.6617 30.18 66.6417 30.28 66.6017 30.38C66.5617 30.48 66.5217 30.58 66.4817 30.68C66.4017 30.88 66.3817 31.1 66.4417 31.38C66.4817 31.66 66.5417 31.92 66.5817 32.2C66.6217 32.48 66.6417 32.76 66.6017 33C66.5617 33.24 66.4217 33.44 66.1617 33.56H69.8817ZM88.5514 29.12H87.6314V29.64C88.0314 30.56 88.2314 31.42 88.2314 32.24C88.2314 33.06 88.0314 33.9 87.6314 34.78V35.12V36.24H86.9914V39H84.5914L82.5714 36.24H83.1914C83.1714 36.22 83.1514 36.18 83.1114 36.12C83.0714 36.08 83.0514 36.04 83.0114 36C82.9714 35.96 82.9114 35.9 82.8714 35.82C82.6714 35.38 82.4514 34.94 82.2114 34.46C81.9714 34 81.6914 33.56 81.4114 33.12C81.1314 32.68 80.8114 32.28 80.4514 31.9C80.0914 31.52 79.7114 31.2 79.2914 30.94C79.2114 30.88 79.1714 30.82 79.1314 30.78C79.0914 30.74 79.0514 30.68 79.0314 30.64C78.9914 30.6 78.9514 30.56 78.9514 30.52V30.68C78.9514 30.8 78.9714 30.96 79.0114 31.12C79.4714 31.82 79.7114 32.56 79.7114 33.32C79.7114 34.08 79.4714 34.86 78.9914 35.64C78.9714 35.76 78.9514 35.84 78.9514 35.9C78.9514 35.98 78.9514 36.04 78.9514 36.08V36.24H78.3314V39H75.4514V36.24H76.0914V35.72C76.3714 35.32 76.5514 34.88 76.6114 34.42C76.6514 33.98 76.6514 33.52 76.5914 33.06C76.5114 32.62 76.4314 32.18 76.3114 31.74C76.1914 31.32 76.1314 30.94 76.0914 30.58V30.24V29.12H77.0114V25.04H79.4114L82.4314 29.12H81.5114C81.5914 29.24 81.6714 29.36 81.7714 29.48C81.8514 29.6 81.9314 29.72 82.0514 29.88C82.1514 30.04 82.2714 30.2 82.4114 30.36L82.6514 30.66C82.8914 30.86 83.1714 31.06 83.4914 31.22C83.7914 31.4 84.0714 31.6 84.3314 31.8C84.5914 32.02 84.8114 32.26 84.9914 32.54C85.1514 32.82 85.2514 33.16 85.2514 33.56C85.3714 33.3 85.4314 33.04 85.3914 32.76C85.3514 32.5 85.2914 32.22 85.1914 31.94C85.0914 31.66 84.9914 31.38 84.8914 31.08C84.7914 30.78 84.7514 30.46 84.7514 30.14V29.8V29.12H85.6714V25.04H88.5514V29.12ZM101.397 31.8C101.697 31.98 101.877 32.18 101.937 32.38C101.997 32.6 102.017 32.8 101.997 33C101.957 33.2 101.937 33.4 101.917 33.58C101.877 33.76 101.937 33.9 102.077 34.02V34.44V36.24H101.457V37.46C100.737 38.06 99.937 38.5 99.057 38.8C98.157 39.1 97.257 39.24 96.357 39.24C95.137 39.24 94.037 38.98 93.057 38.44C92.077 37.92 91.297 37.18 90.697 36.24H91.317C91.197 36.06 91.077 35.88 90.977 35.68C90.877 35.48 90.797 35.28 90.717 35.08C90.677 35.02 90.657 34.96 90.637 34.88C90.597 34.8 90.577 34.74 90.557 34.66C90.517 34.26 90.477 33.88 90.457 33.52C90.437 33.18 90.417 32.84 90.397 32.52L90.337 31.54C90.317 31.22 90.297 30.86 90.257 30.5C90.277 30.42 90.297 30.34 90.297 30.26C90.297 30.18 90.317 30.1 90.357 30.02C90.437 29.72 90.517 29.42 90.637 29.12H91.557C91.797 28.48 92.137 27.88 92.557 27.34C92.977 26.82 93.457 26.36 94.017 25.98C94.557 25.62 95.157 25.32 95.837 25.12C96.497 24.92 97.197 24.8 97.957 24.8C99.077 24.8 100.077 25.02 100.977 25.42C101.857 25.82 102.617 26.42 103.237 27.22L101.377 29.12H101.357C100.437 28.08 99.357 27.56 98.117 27.56C97.417 27.56 96.797 27.7 96.237 27.98C95.677 28.26 95.237 28.64 94.877 29.12H93.957C93.897 29.2 93.857 29.26 93.817 29.32L93.697 29.52C93.657 29.6 93.617 29.66 93.577 29.74C93.537 29.82 93.497 29.88 93.477 29.96C93.497 30.08 93.517 30.22 93.537 30.38C93.537 30.56 93.557 30.74 93.577 30.94C93.577 31.14 93.597 31.34 93.617 31.54C93.617 31.74 93.637 31.9 93.677 32.06C93.697 32.18 93.717 32.28 93.737 32.38C93.737 32.48 93.757 32.58 93.757 32.66C93.717 32.9 93.657 33.12 93.577 33.36C93.497 33.6 93.457 33.82 93.457 34.04C93.457 34.26 93.497 34.46 93.577 34.64C93.657 34.84 93.817 34.98 94.097 35.1C94.137 35.18 94.197 35.24 94.257 35.28L94.437 35.46C94.817 35.82 95.257 36.08 95.737 36.24H95.097C95.537 36.4 95.997 36.48 96.517 36.48C96.777 36.48 97.037 36.48 97.277 36.44C97.517 36.4 97.777 36.34 98.037 36.24H98.657C98.777 36.2 98.917 36.14 99.037 36.08C99.157 36.04 99.297 35.96 99.417 35.88V31.8H100.737H101.397ZM108.388 29.12V29.9V30.42C108.388 30.46 108.388 30.5 108.388 30.54C108.388 30.58 108.408 30.6 108.408 30.62C108.408 30.66 108.408 30.68 108.428 30.68H108.588C108.628 30.68 108.688 30.68 108.768 30.68C108.828 30.68 108.908 30.66 109.008 30.66C109.468 30.74 109.888 30.78 110.268 30.8C110.648 30.84 111.008 30.84 111.368 30.84C111.728 30.84 112.068 30.84 112.428 30.8C112.788 30.78 113.168 30.74 113.608 30.66H114.228V31.32C114.128 31.64 114.088 31.94 114.128 32.22C114.168 32.5 114.308 32.76 114.588 33.02C114.228 33.02 113.828 33 113.408 32.96C112.968 32.92 112.548 32.9 112.108 32.88C111.668 32.88 111.248 32.9 110.828 32.94C110.388 32.98 110.008 33.1 109.668 33.28C109.328 33.46 109.048 33.72 108.808 34.06C108.568 34.42 108.428 34.88 108.388 35.44V36.02V36.24H107.748V36.4H114.608V39H104.848V36.24H105.488V35.12V34.96C105.488 34.92 105.488 34.86 105.508 34.78C105.528 33.9 105.548 33.06 105.548 32.24C105.548 31.42 105.528 30.56 105.488 29.64V29.12H106.408V25.04H115.908V27.64H109.308V29.12H108.388Z" fill="white"/>
<defs>
<filter id="filter0_d_201_3025" x="0" y="0" width="147" height="71" filterUnits="userSpaceOnUse" color-interpolation-filters="sRGB">
<feFlood floodOpacity="0" result="BackgroundImageFix"/>
<feColorMatrix in="SourceAlpha" type="matrix" values="0 0 0 0 0 0 0 0 0 0 0 0 0 0 0 0 0 0 127 0" result="hardAlpha"/>
<feOffset dy="4"/>
<feGaussianBlur stdDeviation="2"/>
<feComposite in2="hardAlpha" operator="out"/>
<feColorMatrix type="matrix" values="0 0 0 0 0 0 0 0 0 0 0 0 0 0 0 0 0 0 0.25 0"/>
<feBlend mode="normal" in2="BackgroundImageFix" result="effect1_dropShadow_201_3025"/>
<feBlend mode="normal" in="SourceGraphic" in2="effect1_dropShadow_201_3025" result="shape"/>
</filter>
<filter id="filter1_di_201_3025" x="5" y="4" width="137" height="64" filterUnits="userSpaceOnUse" color-interpolation-filters="sRGB">
<feFlood floodOpacity="0" result="BackgroundImageFix"/>
<feColorMatrix in="SourceAlpha" type="matrix" values="0 0 0 0 0 0 0 0 0 0 0 0 0 0 0 0 0 0 127 0" result="hardAlpha"/>
<feOffset dy="4"/>
<feGaussianBlur stdDeviation="2"/>
<feComposite in2="hardAlpha" operator="out"/>
<feColorMatrix type="matrix" values="0 0 0 0 0 0 0 0 0 0 0 0 0 0 0 0 0 0 0.25 0"/>
<feBlend mode="normal" in2="BackgroundImageFix" result="effect1_dropShadow_201_3025"/>
<feBlend mode="normal" in="SourceGraphic" in2="effect1_dropShadow_201_3025" result="shape"/>
<feColorMatrix in="SourceAlpha" type="matrix" values="0 0 0 0 0 0 0 0 0 0 0 0 0 0 0 0 0 0 127 0" result="hardAlpha"/>
<feOffset/>
<feGaussianBlur stdDeviation="7"/>
<feComposite in2="hardAlpha" operator="arithmetic" k2="-1" k3="1"/>
<feColorMatrix type="matrix" values="0 0 0 0 0.0916667 0 0 0 0 0.0916667 0 0 0 0 0.0916667 0 0 0 1 0"/>
<feBlend mode="normal" in2="shape" result="effect2_innerShadow_201_3025"/>
</filter>
<linearGradient id="paint0_linear_201_3025" x1="32.4027" y1="4.00001" x2="105.748" y2="90.8014" gradientUnits="userSpaceOnUse">
<stop stopColor="#0185FF"/>
<stop offset="1" stopColor="#164F84"/>
</linearGradient>
</defs>
</svg>
