<svg width="136" height="62" viewBox="0 0 136 62" fill="none" xmlns="http://www.w3.org/2000/svg">
<g filter="url(#filter0_d_301_977)">
<path d="M72.1833 1.00049H111.291L130.432 55.5838H72.1833H5.90234L24.7131 1.00049H72.1833Z" stroke="#5097D9" strokeWidth="2" shapeRendering="crispEdges"/>
</g>
<g filter="url(#filter1_di_301_977)">
<path d="M71.4939 3.00049H109.5L126.861 53.2968H71.4939H9.5L26.5 3.00049H71.4939Z" fill="url(#paint0_linear_301_977)"/>
</g>
<path d="M36.2387 30.5165H35.6627L36.1127 30.9665C35.5727 31.7045 34.9067 32.2625 34.1147 32.6405C33.3227 33.0365 32.4227 33.2165 31.4327 33.2165C30.3347 33.2165 29.3447 32.9825 28.4807 32.4965C27.6167 32.0285 26.9147 31.3625 26.3747 30.5165H26.9507C26.8607 30.4085 26.7707 30.2645 26.6987 30.1205C26.7707 29.6165 26.7707 29.1485 26.6627 28.6985C26.5547 28.2665 26.4467 27.8345 26.3207 27.4205C26.1947 27.0065 26.0867 26.5925 26.0147 26.1785C25.9427 25.7825 25.9607 25.3505 26.0867 24.9185C26.1047 24.8465 26.1227 24.7925 26.1407 24.7205C26.1407 24.6485 26.1587 24.5765 26.1947 24.5045C26.2127 24.4505 26.2307 24.3785 26.2667 24.3065C26.2847 24.2345 26.3027 24.1805 26.3387 24.1085H27.1667C27.3827 23.5325 27.6887 22.9925 28.0667 22.5065C28.4267 22.0385 28.8587 21.6245 29.3447 21.2825C29.8307 20.9585 30.3707 20.6885 30.9647 20.5085C31.5407 20.3285 32.1707 20.2205 32.8367 20.2205C33.8087 20.2205 34.7087 20.4185 35.5007 20.7965C36.2927 21.1925 36.9587 21.7325 37.4987 22.4525L35.8967 24.1085H35.7707C35.0147 23.1725 34.0787 22.7045 32.9807 22.7045C32.3687 22.7045 31.8107 22.8305 31.3427 23.0825C30.8567 23.3345 30.4607 23.6765 30.1367 24.1085H29.3087C29.2187 24.2345 29.1467 24.3605 29.0747 24.4685C29.0027 24.5945 28.9487 24.7205 28.8947 24.8645C28.8227 24.9905 28.7687 25.1345 28.7327 25.2785C28.5887 25.4945 28.5347 25.7285 28.5527 25.9625C28.5527 26.2145 28.6787 26.4485 28.9127 26.7005C28.9487 26.8085 29.0027 26.8985 29.0387 26.9885C29.0747 27.0785 29.1287 27.1685 29.1647 27.2405C29.2727 27.3125 29.3627 27.4025 29.3987 27.5465C29.4347 27.6905 29.4707 27.8345 29.4707 28.0145C29.4707 28.1945 29.4707 28.3925 29.4707 28.5905C29.4707 28.8065 29.4707 29.0045 29.5067 29.1845C29.5247 29.3825 29.5787 29.5625 29.6687 29.7245C29.7407 29.8865 29.8847 30.0125 30.0827 30.1025C30.1907 30.1925 30.3167 30.2645 30.4787 30.3365C30.5327 30.3725 30.6047 30.4085 30.6767 30.4445C30.7487 30.4805 30.8207 30.4985 30.8927 30.5165H30.3167C30.7127 30.6605 31.1267 30.7325 31.5767 30.7325C32.0087 30.7325 32.4047 30.6605 32.8007 30.5165H33.3767C33.9707 30.3005 34.5107 29.8685 34.9967 29.2385L36.2387 30.5165ZM50.7987 24.5045C51.0507 24.8105 51.2487 25.1345 51.4287 25.4585C51.6087 25.7825 51.7167 26.1245 51.7527 26.4845C51.7887 26.8445 51.7347 27.2225 51.5907 27.6005C51.4467 27.9785 51.2127 28.3745 50.8527 28.7705C50.7807 28.9145 50.7267 29.0765 50.6727 29.2385C50.5827 29.4725 50.4927 29.6885 50.3847 29.9045C50.2767 30.1205 50.1507 30.3185 50.0247 30.5165H49.4667C48.9087 31.3445 48.1887 32.0105 47.3067 32.4965C46.4247 32.9825 45.4347 33.2165 44.3547 33.2165C43.2387 33.2165 42.2487 32.9825 41.3847 32.4965C40.5027 32.0105 39.7827 31.3445 39.2427 30.5165H39.8187C39.5487 30.1385 39.3327 29.7065 39.1707 29.2385C39.1347 29.1665 39.1167 29.0765 39.0987 29.0045C39.0627 28.9325 39.0447 28.8605 39.0267 28.7705C39.2427 28.3745 39.3327 27.9785 39.2967 27.5825C39.2607 27.2045 39.2067 26.8265 39.1347 26.4305C39.0627 26.0525 39.0087 25.6745 38.9727 25.2785C38.9367 24.9005 39.0087 24.5045 39.2067 24.1085H39.4227H40.0347C40.2507 23.5325 40.5567 22.9925 40.9347 22.5245C41.2947 22.0565 41.7267 21.6425 42.2307 21.3005C42.7167 20.9585 43.2567 20.6885 43.8507 20.5085C44.4447 20.3285 45.0747 20.2205 45.7587 20.2205C46.4067 20.2205 47.0367 20.3285 47.6307 20.5085C48.2247 20.6885 48.7647 20.9585 49.2687 21.3005C49.7547 21.6425 50.1867 22.0565 50.5647 22.5245C50.9247 22.9925 51.2307 23.5325 51.4647 24.1085H50.6367C50.6547 24.1805 50.6727 24.2345 50.7087 24.3065C50.7447 24.3785 50.7627 24.4505 50.7987 24.5045ZM46.1367 30.5165C46.7127 30.3005 47.1807 29.9585 47.5587 29.4905C47.5947 29.4365 47.6487 29.3825 47.6847 29.3105C47.7207 29.2565 47.7747 29.2025 47.8287 29.1305C48.1167 28.6445 48.3687 28.1765 48.6027 27.7445C48.8187 27.3125 48.9627 26.8805 49.0167 26.4845C49.0527 26.0885 48.9807 25.6925 48.8007 25.2965C48.6027 24.9005 48.2247 24.5045 47.6847 24.1085H47.9007H48.5127C48.1887 23.6765 47.7927 23.3345 47.3247 23.0825C46.8567 22.8305 46.3347 22.7045 45.7587 22.7045C45.1827 22.7045 44.6427 22.8305 44.1747 23.0825C43.7067 23.3345 43.3107 23.6765 42.9867 24.1085H42.1587C42.1767 24.1625 42.1767 24.1985 42.1407 24.2165C42.1047 24.2345 42.0687 24.2525 42.0147 24.2525C41.9427 24.2705 41.8707 24.2705 41.7807 24.2705C41.6547 24.5225 41.6187 24.7385 41.6547 24.9185C41.6907 25.1165 41.7447 25.2965 41.8347 25.4765C41.9067 25.6565 41.9967 25.8545 42.0867 26.0525C42.1587 26.2505 42.1947 26.4665 42.1767 26.7185C42.1587 26.8805 42.1047 27.0605 42.0327 27.2585C41.8527 27.3665 41.7267 27.4925 41.6907 27.6365C41.6367 27.7805 41.6187 27.9425 41.6547 28.1225C41.6907 28.3025 41.7447 28.4825 41.8167 28.6625C41.8887 28.8425 41.9607 28.9865 42.0327 29.1305C42.1047 29.2565 42.1767 29.3825 42.2847 29.4905C42.6447 29.9585 43.1307 30.3005 43.7067 30.5165H43.1307C43.4907 30.6605 43.9047 30.7325 44.3547 30.7325C44.7867 30.7325 45.1827 30.6605 45.5787 30.5165H46.1367ZM65.0834 24.1085H64.2554V24.5765C64.6154 25.4045 64.7954 26.1785 64.7954 26.9165C64.7954 27.6545 64.6154 28.4105 64.2554 29.2025V29.5085V30.5165H63.6794V33.0005H61.5194L59.7014 30.5165H60.2594C60.2414 30.4985 60.2234 30.4625 60.1874 30.4085C60.1514 30.3725 60.1334 30.3365 60.0974 30.3005C60.0614 30.2645 60.0074 30.2105 59.9714 30.1385C59.7914 29.7425 59.5934 29.3465 59.3774 28.9145C59.1614 28.5005 58.9094 28.1045 58.6574 27.7085C58.4054 27.3125 58.1174 26.9525 57.7934 26.6105C57.4694 26.2685 57.1274 25.9805 56.7494 25.7465C56.6774 25.6925 56.6414 25.6385 56.6054 25.6025C56.5694 25.5665 56.5334 25.5125 56.5154 25.4765C56.4794 25.4405 56.4434 25.4045 56.4434 25.3685V25.5125C56.4434 25.6205 56.4614 25.7645 56.4974 25.9085C56.9114 26.5385 57.1274 27.2045 57.1274 27.8885C57.1274 28.5725 56.9114 29.2745 56.4794 29.9765C56.4614 30.0845 56.4434 30.1565 56.4434 30.2105C56.4434 30.2825 56.4434 30.3365 56.4434 30.3725V30.5165H55.8854V33.0005H53.2934V30.5165H53.8694V30.0485C54.1214 29.6885 54.2834 29.2925 54.3374 28.8785C54.3734 28.4825 54.3734 28.0685 54.3194 27.6545C54.2474 27.2585 54.1754 26.8625 54.0674 26.4665C53.9594 26.0885 53.9054 25.7465 53.8694 25.4225V25.1165V24.1085H54.6974V20.4365H56.8574L59.5754 24.1085H58.7474C58.8194 24.2165 58.8914 24.3245 58.9814 24.4325C59.0534 24.5405 59.1254 24.6485 59.2334 24.7925C59.3234 24.9365 59.4314 25.0805 59.5574 25.2245L59.7734 25.4945C59.9894 25.6745 60.2414 25.8545 60.5294 25.9985C60.7994 26.1605 61.0514 26.3405 61.2854 26.5205C61.5194 26.7185 61.7174 26.9345 61.8794 27.1865C62.0234 27.4385 62.1134 27.7445 62.1134 28.1045C62.2214 27.8705 62.2754 27.6365 62.2394 27.3845C62.2034 27.1505 62.1494 26.8985 62.0594 26.6465C61.9694 26.3945 61.8794 26.1425 61.7894 25.8725C61.6994 25.6025 61.6634 25.3145 61.6634 25.0265V24.7205V24.1085H62.4914V20.4365H65.0834V24.1085ZM69.8764 24.1085V24.6305V24.8645C69.8764 24.9365 69.8764 25.0265 69.8944 25.0985C69.8584 25.4225 69.8584 25.6745 69.8944 25.8725C69.9124 26.0885 69.9844 26.1605 70.1284 26.1065H70.6504C71.0464 26.1425 71.4244 26.1245 71.8204 26.0885C72.1984 26.0525 72.5764 26.0345 72.9364 25.9985C73.2964 25.9805 73.6744 25.9805 74.0344 25.9985C74.3944 26.0165 74.7544 26.0885 75.1144 26.1965C75.1144 26.3225 75.1324 26.4845 75.1684 26.7005C75.2044 26.9165 75.2404 27.1505 75.2764 27.3845C75.3124 27.6365 75.3124 27.8525 75.3124 28.0685C75.2944 28.2845 75.2224 28.4645 75.1144 28.5725C74.8624 28.7345 74.6104 28.8065 74.3224 28.8065C74.0344 28.8065 73.7284 28.7885 73.4224 28.7165C73.1164 28.6625 72.8104 28.5905 72.4864 28.5185C72.1624 28.4465 71.8384 28.4105 71.5324 28.4285C71.2264 28.4465 70.9384 28.5365 70.6684 28.6805C70.3804 28.8245 70.1284 29.0945 69.9124 29.4725C69.8944 29.5625 69.8764 29.6525 69.8764 29.7245C69.8764 29.8145 69.8764 29.9045 69.8764 29.9765V30.5165H69.3184V33.0005H66.7084V30.5165H67.2664V29.5085C67.2664 29.4185 67.2664 29.3105 67.2664 29.2025C67.2664 29.0945 67.2844 28.9865 67.2844 28.8605C67.3204 28.6805 67.3564 28.4465 67.3744 28.1945C67.3924 27.9425 67.4104 27.6545 67.4104 27.3665C67.4104 27.0785 67.3924 26.8085 67.3744 26.5205C67.3564 26.2505 67.3204 25.9985 67.2844 25.7645C67.2844 25.6565 67.2664 25.5305 67.2664 25.4225C67.2664 25.3145 67.2664 25.2245 67.2664 25.1165V24.1085H68.0944V20.4365H76.6444V22.7765H70.7224V24.1085H69.8764ZM81.3742 24.1085V25.4225V25.7645C81.3742 26.1245 81.4282 26.4665 81.5182 26.8085C81.6082 27.1685 81.6802 27.5105 81.7522 27.8705C81.8242 28.2305 81.8422 28.5905 81.8062 28.9505C81.7702 29.3105 81.6262 29.6885 81.3922 30.0485C81.3742 30.1205 81.3742 30.1925 81.3742 30.2465V30.3905V30.5165H80.7982V33.0005H78.1882V30.5165H78.7462V30.0485C79.1062 29.3105 79.3042 28.5005 79.3042 27.6005C79.3042 26.7005 79.1242 25.8185 78.7642 24.9545C78.7462 24.8825 78.7462 24.7925 78.7462 24.7205V24.5045V24.1085H79.5742V20.4365H82.2022V24.1085H81.3742ZM94.4813 25.5665C94.5533 25.9985 94.5713 26.3585 94.4993 26.6465C94.4273 26.9345 94.3193 27.1865 94.1753 27.4025C94.0313 27.6185 93.8513 27.7985 93.6533 27.9425C93.4373 28.1045 93.2393 28.2485 93.0593 28.3925C92.8613 28.5365 92.6813 28.6805 92.5373 28.8245C92.3753 28.9865 92.2673 29.1665 92.2133 29.3645C92.2313 29.4365 92.2673 29.4905 92.3033 29.5625C92.3393 29.6345 92.3933 29.6885 92.4293 29.7425C92.4833 29.8505 92.5373 29.9405 92.6093 30.0305L92.7713 30.2645L92.9153 30.5165H92.3573L93.9233 33.0005H91.0973L89.5493 30.5165H90.1253L89.5853 29.6525C89.5493 29.6345 89.5313 29.5985 89.5133 29.5445C89.4953 29.5265 89.4953 29.5085 89.4953 29.4905C89.2973 29.6345 89.0993 29.6885 88.8833 29.6705C88.6673 29.6525 88.4693 29.6345 88.2533 29.5985C88.0373 29.5625 87.8393 29.5625 87.6413 29.5985C87.4433 29.6345 87.2633 29.7785 87.0833 30.0125V30.5165H86.5073V33.0005H83.8973V30.5165H84.4553V30.0485V29.5085C84.4553 29.3105 84.4553 29.0945 84.4733 28.8425C84.4553 28.6625 84.4373 28.4465 84.4373 28.1765C84.4373 27.9245 84.4373 27.6545 84.4373 27.3665C84.4373 27.0785 84.4373 26.8085 84.4373 26.5205C84.4373 26.2505 84.4553 25.9985 84.4553 25.7645V24.5765V24.1085H85.2833V20.4365H90.1793C91.5293 20.4365 92.6273 20.7605 93.4913 21.4085C94.3373 22.0565 94.8413 22.9565 95.0213 24.1085H94.1933C94.2113 24.1805 94.2293 24.2525 94.2293 24.3245C94.2293 24.3965 94.2473 24.4685 94.2653 24.5405C94.2653 24.6125 94.2833 24.7025 94.2833 24.7745C94.2833 24.8465 94.3013 24.9365 94.3373 25.0085C94.3553 25.1165 94.3733 25.2065 94.4093 25.2965C94.4273 25.3865 94.4453 25.4765 94.4813 25.5665ZM92.3033 24.1085C92.1593 23.6945 91.8893 23.3705 91.5113 23.1545C91.1333 22.9385 90.6473 22.8125 90.0353 22.8125H87.9113V24.1085H87.0833V24.5945V24.8285C87.0833 24.9005 87.0833 24.9905 87.1013 25.0805C87.0473 25.5125 87.1013 25.8725 87.2633 26.1785C87.4253 26.5025 87.6593 26.7545 87.9473 26.9345C88.2353 27.1145 88.5593 27.2405 88.9373 27.3125C89.3153 27.3845 89.6933 27.3845 90.0893 27.3305C90.4673 27.2765 90.8273 27.1505 91.1873 26.9705C91.5473 26.7905 91.8353 26.5205 92.0873 26.1965C92.0873 26.0885 92.0333 25.9625 91.9433 25.8365C91.8353 25.7285 91.7453 25.6025 91.6553 25.4585C91.5653 25.3145 91.5113 25.1705 91.4753 25.0265C91.4393 24.8825 91.4753 24.7025 91.5833 24.5225C91.5473 24.3785 91.5113 24.2345 91.4753 24.1085H92.3033ZM109.986 25.4225C110.094 25.8545 110.22 26.2505 110.364 26.6105C110.508 26.9705 110.598 27.3125 110.67 27.6545C110.724 28.0145 110.706 28.3745 110.634 28.7525C110.544 29.1485 110.328 29.5805 109.986 30.0485V30.5165H109.41L109.428 33.0005H106.962V30.5165H107.52V29.9945V29.7245C107.52 29.6345 107.52 29.5265 107.538 29.4185C107.538 29.0945 107.592 28.7885 107.736 28.5005C107.88 28.2125 107.988 27.9065 108.078 27.6185C108.168 27.3305 108.186 27.0245 108.15 26.7185C108.114 26.4125 107.916 26.0705 107.556 25.7105C107.664 26.1965 107.664 26.5925 107.52 26.9165C107.376 27.2405 107.196 27.5105 106.944 27.7625C106.692 28.0145 106.422 28.2485 106.152 28.4645C105.864 28.6805 105.648 28.9325 105.504 29.2025C105.432 29.3105 105.378 29.4005 105.342 29.4725C105.306 29.5625 105.27 29.6525 105.234 29.7245C105.162 29.8505 105.09 29.9585 105.036 30.0485C104.982 30.1565 104.946 30.2285 104.91 30.3005L104.802 30.5165H103.668L103.056 31.6685H101.868L101.238 30.5165H102.372L102.264 30.3005C102.228 30.2465 102.174 30.1745 102.12 30.0665C102.066 29.9765 102.012 29.8685 101.958 29.7425C101.904 29.6705 101.85 29.5985 101.814 29.5085C101.778 29.4365 101.742 29.3465 101.706 29.2385C101.598 28.9505 101.508 28.6625 101.4 28.3385C101.292 28.0325 101.166 27.7265 101.022 27.4025C100.878 27.0965 100.716 26.7905 100.536 26.5025C100.356 26.2145 100.14 25.9625 99.9058 25.7105C100.14 26.0705 100.266 26.4125 100.302 26.7185C100.338 27.0245 100.32 27.3305 100.248 27.6185C100.176 27.9065 100.068 28.2125 99.9598 28.5005C99.8518 28.8065 99.7618 29.1305 99.7258 29.4545C99.6898 29.5625 99.6898 29.6705 99.6898 29.7605V30.0125V30.5165H99.1138V33.0005H96.6658V30.5165H97.2238V30.3905V30.2465C97.2238 30.1925 97.2238 30.1205 97.2418 30.0485C97.5478 29.6885 97.7638 29.2925 97.8718 28.8785C97.9798 28.4825 98.0158 28.0685 97.9798 27.6545C97.9438 27.2585 97.8718 26.8625 97.7278 26.4665C97.5838 26.0885 97.4038 25.7465 97.2238 25.4225V25.1165V24.1085H98.0518V20.4365H100.23L102.21 24.1085H101.382L101.436 24.2165C101.454 24.2525 101.472 24.3065 101.508 24.3605C101.544 24.4325 101.58 24.4865 101.616 24.5405C101.652 24.6125 101.688 24.6845 101.724 24.7565C101.76 24.8285 101.814 24.9185 101.886 25.0085C102.21 25.1885 102.48 25.4405 102.678 25.7285C102.876 26.0165 103.056 26.3045 103.2 26.5925C103.344 26.8805 103.488 27.1145 103.632 27.3125C103.776 27.5285 103.956 27.6185 104.208 27.6185C104.442 27.6185 104.622 27.5285 104.766 27.3125C104.892 27.0965 105 26.8445 105.09 26.5205C105.18 26.2145 105.27 25.8725 105.342 25.5125C105.414 25.1525 105.504 24.8285 105.612 24.5405C105.648 24.4865 105.666 24.4325 105.702 24.3605C105.72 24.3065 105.738 24.2525 105.774 24.2165C105.792 24.1805 105.81 24.1445 105.846 24.1085H106.674L108.636 20.4365H110.778L110.796 24.1085H109.968V25.1165V25.2605C109.968 25.3145 109.968 25.3685 109.986 25.4225Z" fill="white"/>
<defs>
<filter id="filter0_d_301_977" x="0.5" y="0.000488281" width="135.343" height="64.5835" filterUnits="userSpaceOnUse" color-interpolation-filters="sRGB">
<feFlood floodOpacity="0" result="BackgroundImageFix"/>
<feColorMatrix in="SourceAlpha" type="matrix" values="0 0 0 0 0 0 0 0 0 0 0 0 0 0 0 0 0 0 127 0" result="hardAlpha"/>
<feOffset dy="4"/>
<feGaussianBlur stdDeviation="2"/>
<feComposite in2="hardAlpha" operator="out"/>
<feColorMatrix type="matrix" values="0 0 0 0 0 0 0 0 0 0 0 0 0 0 0 0 0 0 0.25 0"/>
<feBlend mode="normal" in2="BackgroundImageFix" result="effect1_dropShadow_301_977"/>
<feBlend mode="normal" in="SourceGraphic" in2="effect1_dropShadow_301_977" result="shape"/>
</filter>
<filter id="filter1_di_301_977" x="5.5" y="3.00049" width="125.361" height="58.2964" filterUnits="userSpaceOnUse" color-interpolation-filters="sRGB">
<feFlood floodOpacity="0" result="BackgroundImageFix"/>
<feColorMatrix in="SourceAlpha" type="matrix" values="0 0 0 0 0 0 0 0 0 0 0 0 0 0 0 0 0 0 127 0" result="hardAlpha"/>
<feOffset dy="4"/>
<feGaussianBlur stdDeviation="2"/>
<feComposite in2="hardAlpha" operator="out"/>
<feColorMatrix type="matrix" values="0 0 0 0 0 0 0 0 0 0 0 0 0 0 0 0 0 0 0.25 0"/>
<feBlend mode="normal" in2="BackgroundImageFix" result="effect1_dropShadow_301_977"/>
<feBlend mode="normal" in="SourceGraphic" in2="effect1_dropShadow_301_977" result="shape"/>
<feColorMatrix in="SourceAlpha" type="matrix" values="0 0 0 0 0 0 0 0 0 0 0 0 0 0 0 0 0 0 127 0" result="hardAlpha"/>
<feOffset/>
<feGaussianBlur stdDeviation="7"/>
<feComposite in2="hardAlpha" operator="arithmetic" k2="-1" k3="1"/>
<feColorMatrix type="matrix" values="0 0 0 0 0.0916667 0 0 0 0 0.0916667 0 0 0 0 0.0916667 0 0 0 1 0"/>
<feBlend mode="normal" in2="shape" result="effect2_innerShadow_301_977"/>
</filter>
<linearGradient id="paint0_linear_301_977" x1="32.0191" y1="3.00049" x2="97.8944" y2="80.961" gradientUnits="userSpaceOnUse">
<stop stopColor="#5097D9"/>
<stop offset="1" stopColor="#0085FF"/>
</linearGradient>
</defs>
</svg>
