<svg width="38" height="41" viewBox="0 0 38 41" fill="none" xmlns="http://www.w3.org/2000/svg">
<g clip-path="url(#clip0_318_1015)" filter="url(#filter0_d_318_1015)">
<g filter="url(#filter1_d_318_1015)">
<path d="M31 3H7C5.35 3 4 4.35 4 6V33L10 27H31C32.65 27 34 25.65 34 24V6C34 4.35 32.65 3 31 3ZM20.5 21H17.5V18H20.5V21ZM23.2 13.5C22.75 14.1 22.15 14.4 21.55 14.7C21.1 15 20.95 15.15 20.8 15.45C20.5 15.75 20.5 16.05 20.5 16.5H17.5C17.5 15.75 17.65 15.3 17.95 14.85C18.25 14.55 18.85 14.1 19.6 13.65C20.05 13.5 20.35 13.2 20.5 12.9C20.65 12.6 20.8 12.15 20.8 11.85C20.8 11.4 20.65 11.1 20.35 10.8C20.05 10.5 19.6 10.35 19.15 10.35C18.7 10.35 18.4 10.5 18.1 10.65C17.8 10.8 17.65 11.1 17.65 11.55H14.65C14.8 10.5 15.25 9.6 16 9C16.75 8.4 17.8 8.25 19.15 8.25C20.5 8.25 21.7 8.55 22.45 9.15C23.2 9.75 23.65 10.65 23.65 11.7C23.8 12.3 23.65 12.9 23.2 13.5Z" fill="white"/>
</g>
</g>
<defs>
<filter id="filter0_d_318_1015" x="-3" y="0" width="44" height="44" filterUnits="userSpaceOnUse" color-interpolation-filters="sRGB">
<feFlood floodOpacity="0" result="BackgroundImageFix"/>
<feColorMatrix in="SourceAlpha" type="matrix" values="0 0 0 0 0 0 0 0 0 0 0 0 0 0 0 0 0 0 127 0" result="hardAlpha"/>
<feOffset dy="4"/>
<feGaussianBlur stdDeviation="2"/>
<feComposite in2="hardAlpha" operator="out"/>
<feColorMatrix type="matrix" values="0 0 0 0 0 0 0 0 0 0 0 0 0 0 0 0 0 0 0.25 0"/>
<feBlend mode="normal" in2="BackgroundImageFix" result="effect1_dropShadow_318_1015"/>
<feBlend mode="normal" in="SourceGraphic" in2="effect1_dropShadow_318_1015" result="shape"/>
</filter>
<filter id="filter1_d_318_1015" x="0" y="-1" width="38" height="38" filterUnits="userSpaceOnUse" color-interpolation-filters="sRGB">
<feFlood floodOpacity="0" result="BackgroundImageFix"/>
<feColorMatrix in="SourceAlpha" type="matrix" values="0 0 0 0 0 0 0 0 0 0 0 0 0 0 0 0 0 0 127 0" result="hardAlpha"/>
<feOffset/>
<feGaussianBlur stdDeviation="2"/>
<feComposite in2="hardAlpha" operator="out"/>
<feColorMatrix type="matrix" values="0 0 0 0 0 0 0 0 0 0 0 0 0 0 0 0 0 0 1 0"/>
<feBlend mode="normal" in2="BackgroundImageFix" result="effect1_dropShadow_318_1015"/>
<feBlend mode="normal" in="SourceGraphic" in2="effect1_dropShadow_318_1015" result="shape"/>
</filter>
<clipPath id="clip0_318_1015">
<rect width="36" height="36" fill="white" transform="translate(1)"/>
</clipPath>
</defs>
</svg>
