<svg width="91" height="35" viewBox="0 0 91 35" fill="none" xmlns="http://www.w3.org/2000/svg">
<g filter="url(#filter0_d_1_2609)">
<path d="M4 0H52L50.3738 27H4V0Z" fill="#164F84"/>
<path d="M4.25 0.25H51.7345L50.1384 26.75H4.25V0.25Z" stroke="white" strokeWidth="0.5"/>
</g>
<g filter="url(#filter1_d_1_2609)">
<path d="M54.0192 0H87V27H52L54.0192 0Z" fill="#D9D9D9"/>
</g>
<path d="M69.5001 9.72118C69.6278 9.72118 69.7518 9.74409 69.8719 9.78993C69.992 9.83576 70.0917 9.89687 70.1709 9.97326L74.5792 14.1899C74.7549 14.358 74.8428 14.5719 74.8428 14.8316C74.8428 15.0913 74.7549 15.3052 74.5792 15.4733C74.4035 15.6413 74.1799 15.7253 73.9084 15.7253C73.6369 15.7253 73.4133 15.6413 73.2376 15.4733L69.5001 11.8983L65.7626 15.4733C65.5869 15.6413 65.3633 15.7253 65.0917 15.7253C64.8202 15.7253 64.5966 15.6413 64.4209 15.4733C64.2452 15.3052 64.1574 15.0913 64.1574 14.8316C64.1574 14.5719 64.2452 14.358 64.4209 14.1899L68.8292 9.97326C68.9251 9.88159 69.0289 9.81651 69.1407 9.77801C69.2525 9.73951 69.3723 9.72056 69.5001 9.72118Z" fill="#5097D9"/>
<defs>
<filter id="filter0_d_1_2609" x="0" y="0" width="56" height="35" filterUnits="userSpaceOnUse" color-interpolation-filters="sRGB">
<feFlood floodOpacity="0" result="BackgroundImageFix"/>
<feColorMatrix in="SourceAlpha" type="matrix" values="0 0 0 0 0 0 0 0 0 0 0 0 0 0 0 0 0 0 127 0" result="hardAlpha"/>
<feOffset dy="4"/>
<feGaussianBlur stdDeviation="2"/>
<feComposite in2="hardAlpha" operator="out"/>
<feColorMatrix type="matrix" values="0 0 0 0 0 0 0 0 0 0 0 0 0 0 0 0 0 0 0.25 0"/>
<feBlend mode="normal" in2="BackgroundImageFix" result="effect1_dropShadow_1_2609"/>
<feBlend mode="normal" in="SourceGraphic" in2="effect1_dropShadow_1_2609" result="shape"/>
</filter>
<filter id="filter1_d_1_2609" x="48" y="0" width="43" height="35" filterUnits="userSpaceOnUse" color-interpolation-filters="sRGB">
<feFlood floodOpacity="0" result="BackgroundImageFix"/>
<feColorMatrix in="SourceAlpha" type="matrix" values="0 0 0 0 0 0 0 0 0 0 0 0 0 0 0 0 0 0 127 0" result="hardAlpha"/>
<feOffset dy="4"/>
<feGaussianBlur stdDeviation="2"/>
<feComposite in2="hardAlpha" operator="out"/>
<feColorMatrix type="matrix" values="0 0 0 0 0 0 0 0 0 0 0 0 0 0 0 0 0 0 0.25 0"/>
<feBlend mode="normal" in2="BackgroundImageFix" result="effect1_dropShadow_1_2609"/>
<feBlend mode="normal" in="SourceGraphic" in2="effect1_dropShadow_1_2609" result="shape"/>
</filter>
</defs>
</svg>
