<svg width="32" height="26" viewBox="0 0 32 26" fill="none" xmlns="http://www.w3.org/2000/svg">
<g clip-path="url(#clip0_2701_1729)">
<path d="M4.44239 19.7631C2.95736 16.4998 1.47868 13.2498 0 9.99986C0.014429 9.98774 0.0294351 9.97562 0.0438641 9.9635C2.11413 11.4191 4.18498 12.8753 6.26564 14.3384C7.13138 10.9614 7.15677 7.5123 7.20583 4.05974C8.41151 6.676 9.74013 9.21723 11.4295 11.6067C13.7704 8.06349 15.1625 4.17517 16.0127 0C16.879 4.15266 18.2047 8.06003 20.5451 11.6021C22.227 9.21723 23.57 6.66676 24.8121 4.05108C24.8513 7.50422 24.9315 10.947 25.7684 14.3378C27.8318 12.8833 29.9009 11.4249 31.9694 9.96696C31.9798 9.97504 31.9896 9.9837 32 9.99178C30.5173 13.2395 29.034 16.4865 27.5391 19.7608C27.0803 19.4849 26.6469 19.224 26.1753 18.9406C27.2933 17.0025 28.4026 15.0783 29.5124 13.154C29.5055 13.1477 29.4986 13.1413 29.4917 13.135C27.852 14.7412 26.2122 16.3475 24.5489 17.9773C24.1853 16.924 23.8748 15.8724 23.6935 14.7903C23.5129 13.7133 23.3813 12.6282 23.2399 11.6286C22.3303 13.0825 21.367 14.6212 20.3853 16.1893C18.416 13.7987 17.1797 11.0826 16.0271 8.273C14.8665 11.0924 13.6354 13.8131 11.6476 16.1397C10.5707 14.6737 9.64144 13.1079 8.71683 11.5264C8.67008 13.7566 8.14891 15.8857 7.44766 17.9964C5.80449 16.37 4.17863 14.7608 2.55277 13.1517C2.54469 13.1604 2.53604 13.1696 2.52796 13.1783C3.6234 15.0956 4.71943 17.0129 5.82238 18.9429C5.34969 19.224 4.90816 19.4872 4.44355 19.7637L4.44239 19.7631Z" fill="#3D3D3D"/>
<path d="M4.15527 21.2319C4.76648 20.7407 5.4054 20.3846 6.06913 20.0689C7.62284 19.3301 9.25678 18.8471 10.9484 18.5504C13.1024 18.1729 14.5262 16.9517 15.1744 14.8572C15.4751 13.8846 15.7435 12.9023 16.0303 11.9084C16.1053 12.2034 16.1717 12.5012 16.2577 12.7932C16.5053 13.6336 16.7223 14.486 17.0213 15.3085C17.7023 17.1843 19.1072 18.207 21.0349 18.5435C23.2869 18.9365 25.4259 19.6291 27.3721 20.8544C27.5117 20.9421 27.6422 21.0443 27.7755 21.1418C27.798 21.158 27.8142 21.1822 27.8534 21.2244C26.994 21.3213 26.5046 21.8402 26.2033 22.587C26.1814 22.5836 26.1577 22.587 26.1416 22.5772C24.7893 21.7819 23.2991 21.3877 21.7742 21.1211C20.8738 20.9635 19.9573 20.9006 19.0541 20.7569C17.8345 20.5629 16.787 20.0418 16.0355 19.0421C15.744 19.3157 15.4722 19.6153 15.1565 19.8577C14.3404 20.4856 13.3892 20.7621 12.3757 20.8406C10.3742 20.9952 8.42105 21.3571 6.58049 22.1957C6.32308 22.3129 6.07837 22.4566 5.82788 22.5882C5.34653 21.6584 4.91481 21.2994 4.15527 21.2313V21.2319Z" fill="#3D3D3D"/>
<path d="M6.98731 25.7585C6.63986 24.6313 6.17756 24.2267 5.13867 24.2065C5.20909 24.1563 5.24775 24.1223 5.2922 24.098C6.3686 23.5122 7.531 23.1711 8.71648 22.8987C10.3533 22.523 12.0126 22.336 13.6899 22.2857C14.5487 22.2603 15.3221 22.4687 15.9904 23.0534C16.399 22.6897 16.8688 22.4329 17.4045 22.3619C17.8702 22.3002 18.3481 22.2805 18.8179 22.3031C20.1454 22.3665 21.4648 22.5137 22.768 22.785C24.0539 23.0528 25.3173 23.3916 26.5016 23.9768C26.6205 24.0357 26.7342 24.1032 26.9178 24.2036C25.7606 24.1857 25.2186 24.805 24.9906 25.8162C24.3027 25.3966 23.5402 25.2073 22.7697 25.0607C21.2535 24.7721 19.7246 24.599 18.1796 24.7277C17.3589 24.7958 16.6253 25.1034 16.0066 25.6789C15.168 24.8928 14.1452 24.6729 13.0492 24.6815C11.5128 24.6942 9.98911 24.8304 8.50062 25.2252C7.98464 25.362 7.49002 25.579 6.98673 25.7585H6.98731Z" fill="#3D3D3D"/>
<path d="M22.7117 14.0405C22.662 14.5571 22.5708 15.1094 22.5662 15.6629C22.561 16.2199 22.6418 16.7774 22.6799 17.2657C22.0364 16.5067 22.0283 14.897 22.7122 14.0411L22.7117 14.0405Z" fill="#3D3D3D"/>
<path d="M9.21484 13.9194C9.96111 14.9739 9.98997 16.3164 9.25178 17.3899C9.54209 16.2096 9.50689 15.0911 9.21484 13.9194Z" fill="#3D3D3D"/>
</g>
<defs>
<clipPath id="clip0_2701_1729">
<rect width="32" height="25.8163" fill="white"/>
</clipPath>
</defs>
</svg>
