<svg width="34" height="35" viewBox="0 0 34 35" fill="none" xmlns="http://www.w3.org/2000/svg">
<g style="mix-blend-mode:overlay">
<path d="M0 28.7226C0.219712 28.2861 0.431729 27.8595 0.647978 27.4353C1.07932 26.5888 1.51451 25.7445 1.94316 24.8968C2.00242 24.7794 2.0763 24.7139 2.20867 24.682C3.54772 24.3594 4.88485 24.0303 6.22275 23.7028C6.24122 23.6982 6.2593 23.6932 6.30817 23.6797C6.14617 23.3844 5.9988 23.0906 5.82603 22.8125C5.74023 22.674 5.75408 22.5812 5.84643 22.4577C6.25584 21.9111 6.65601 21.3576 7.06081 20.8072C7.08697 20.7719 7.12083 20.7423 7.16085 20.6998C7.8881 21.2559 8.61188 21.8098 9.36336 22.3844C9.34489 22.3204 9.34066 22.2851 9.32527 22.2552C8.92663 21.4869 8.53146 20.7163 8.12474 19.9522C7.9562 19.6357 7.75304 19.3415 7.39172 19.1892C7.65492 18.9046 7.89502 18.6139 8.17168 18.3626C8.27057 18.2725 8.45527 18.2664 8.60418 18.2422C9.56691 18.0857 10.5308 17.935 11.5189 17.7781C11.532 17.8816 11.5428 17.9415 11.5466 18.0017C11.5843 18.5939 11.639 19.1858 11.6486 19.778C11.6524 20.0182 11.5643 20.2621 11.5032 20.5003C11.4751 20.6096 11.41 20.7094 11.3627 20.8137C11.2215 21.1263 11.25 21.4278 11.4535 21.6994C11.7948 22.1539 12.1484 22.5992 12.4974 23.048C12.5552 23.1224 12.616 23.1941 12.6887 23.2613C12.3751 22.343 12.2065 21.4017 12.1696 20.4286C13.5687 21.3384 15.0493 22.0503 16.6493 22.4995C16.6566 22.4841 16.6643 22.4688 16.6716 22.4535C16.2576 22.2187 15.8343 21.9978 15.431 21.7458C14.5976 21.2249 13.778 20.6813 12.9449 20.1597C12.7006 20.0066 12.6075 19.8033 12.5917 19.5295C12.559 18.9691 12.5171 18.4091 12.4632 17.8502C12.452 17.734 12.3955 17.6039 12.3189 17.5149C11.8575 16.9776 11.602 16.3466 11.4377 15.6703C11.417 15.5844 11.3958 15.4989 11.3696 15.3923C11.0541 15.5491 10.7486 15.533 10.4511 15.3742C10.126 15.2005 9.9036 14.932 9.78509 14.5891C9.5269 13.8442 9.2537 13.1027 9.0386 12.3455C8.81273 11.5519 9.07477 11.1108 9.8582 10.8415C9.8024 10.4614 9.74045 10.0794 9.6912 9.6958C9.63925 9.29113 9.6027 8.88493 9.55191 8.47987C9.53805 8.36864 9.51651 8.25126 9.46764 8.15192C9.00359 7.21523 8.79696 6.23022 8.90239 5.18766C8.9551 4.66754 9.0767 4.16467 9.35182 3.66564C9.39568 4.17541 9.43609 4.64529 9.47649 5.11517C9.4915 5.11939 9.50689 5.12399 9.52189 5.12821C9.96093 3.51375 10.7971 2.17776 12.2173 1.24683C11.8922 1.95797 11.6532 2.68676 11.6132 3.46849C11.9349 3.03697 12.2308 2.5924 12.5744 2.18812C13.494 1.10606 14.6318 0.369211 16.0428 0.0765445C16.7655 -0.0734328 17.4581 0.00826843 18.1572 0.223453C18.8325 0.43135 19.5182 0.616616 20.2108 0.752018C20.7745 0.862487 21.3487 0.796896 21.8881 0.579409C22.0682 0.506914 22.2267 0.381486 22.4118 0.270633C22.4772 1.3408 22.605 2.41059 22.937 3.49265C23.1494 3.3024 23.3365 3.13478 23.5596 2.93493C23.6208 3.24678 23.6978 3.54367 23.7339 3.84515C23.8124 4.50222 23.7843 5.15621 23.6277 5.80253C23.6123 5.86582 23.622 5.94407 23.6454 6.00583C24.0171 6.99314 24.0756 7.98315 23.7501 9.00153C23.6474 9.32297 23.667 9.68276 23.6277 10.0245C23.5966 10.2957 23.5619 10.5665 23.5288 10.8358C23.6547 10.8795 23.787 10.9094 23.9044 10.9685C24.3504 11.1929 24.5504 11.6421 24.4608 12.2021C24.3177 13.0954 23.9883 13.9328 23.6466 14.7617C23.463 15.207 23.1021 15.4805 22.5927 15.4939C22.4876 15.4966 22.381 15.459 22.2768 15.4398C22.2136 15.7701 22.1836 16.1153 22.0767 16.4344C21.967 16.7612 21.765 17.0562 21.6353 17.3776C21.5622 17.5594 21.5368 17.7654 21.5187 17.963C21.4691 18.503 21.4264 19.0439 21.3975 19.5851C21.3852 19.8149 21.3086 19.9863 21.1116 20.1114C20.1154 20.7443 19.1227 21.3833 18.1249 22.0147C17.8783 22.1708 17.6182 22.3054 17.3615 22.4515C17.8783 22.5171 20.4167 21.3614 21.8531 20.3952C21.7873 20.9111 21.7473 21.3829 21.6622 21.8463C21.5776 22.3073 21.4475 22.7603 21.3298 23.2475C21.4129 23.1496 21.4849 23.0702 21.551 22.9859C21.8716 22.5797 22.1898 22.1719 22.5099 21.7653C22.7685 21.4366 22.8216 21.0899 22.6054 20.7186C22.3564 20.2913 22.3237 19.8317 22.3718 19.3496C22.4137 18.9311 22.4168 18.5084 22.4376 18.0876C22.4414 18.0059 22.4472 17.9246 22.4541 17.8118C22.8016 17.8525 23.1317 17.8805 23.458 17.9315C24.1891 18.0466 24.9187 18.172 25.6482 18.2971C25.7144 18.3086 25.7933 18.33 25.8372 18.3749C26.095 18.64 26.3439 18.9135 26.606 19.195C26.235 19.3718 26.0288 19.694 25.8499 20.0327C25.4547 20.7818 25.0711 21.5371 24.6832 22.2904C24.672 22.3123 24.6663 22.3369 24.6378 22.4159C25.4016 21.8256 26.1234 21.2675 26.8653 20.6936C26.9934 20.854 27.1258 21.0066 27.2436 21.17C27.5579 21.6046 27.8627 22.0461 28.179 22.4792C28.2609 22.5915 28.2694 22.6798 28.1967 22.8017C28.027 23.0856 27.8727 23.3786 27.7099 23.6721C28.3117 23.8086 28.902 23.9318 29.4869 24.0779C30.2726 24.2747 31.0541 24.4872 31.8352 24.7004C31.9056 24.7196 31.9864 24.781 32.0191 24.845C32.6786 26.1262 33.332 27.4104 33.9865 28.6942C33.9919 28.7049 33.9919 28.7184 34 28.7567C33.5864 29.0149 33.1704 29.2864 32.7429 29.5388C29.5053 31.4509 26.0919 32.9607 22.4661 33.9814C21.0274 34.3864 19.5648 34.6787 18.0907 34.9231C17.2168 35.068 16.3595 34.989 15.4988 34.844C13.2335 34.4628 11.0252 33.869 8.86776 33.0861C5.97264 32.0359 3.20449 30.7222 0.585258 29.1019C0.390942 28.9819 0.202782 28.8526 0 28.7199L0 28.7226ZM17.026 28.7847C16.3845 28.1871 15.7404 27.5941 15.1055 26.9919C14.7827 26.6858 14.4368 26.4292 14.0154 26.2643C13.4275 26.0341 12.8522 25.7729 12.2712 25.5255C12.1107 25.4572 11.9495 25.3905 11.776 25.3172C11.6575 25.6225 11.5478 25.9056 11.4331 26.2006C11.5097 26.2378 11.5766 26.2719 11.6451 26.3034C12.2535 26.5838 12.8691 26.85 13.4679 27.1499C13.738 27.285 14 27.4591 14.2213 27.6635C15.0101 28.3931 15.7789 29.1441 16.5565 29.8856C16.707 30.029 16.8624 30.1675 17.0171 30.3094C17.7105 29.6443 18.39 28.9945 19.0669 28.3425C19.6271 27.8028 20.1558 27.2236 20.9285 26.9666C21.1151 26.9044 21.2905 26.807 21.4702 26.7242C21.8446 26.5516 22.2187 26.3778 22.6042 26.1991C22.483 25.8991 22.3683 25.6137 22.2525 25.3272C21.6215 25.6014 21.025 25.8956 20.404 26.122C19.651 26.3966 19.0399 26.8515 18.4835 27.4108C18.0153 27.8818 17.5173 28.3233 17.026 28.7847ZM20.3032 4.19766C18.7998 5.4903 17.0079 6.16194 15.114 6.62568C16.293 6.61072 17.4646 6.58694 18.634 6.52096C19.2362 6.48721 19.8003 6.29389 20.2539 5.86582C20.5275 5.60768 20.7457 5.31463 20.855 4.91226C20.3909 5.21451 19.9238 5.41627 19.3709 5.5463C19.7764 5.12399 20.1058 4.70858 20.3032 4.19766ZM22.6446 13.0034C22.6511 13.0037 22.6577 13.0045 22.6642 13.0049C22.6758 12.9113 22.6919 12.8181 22.6989 12.7241C22.7416 12.133 22.7935 11.5423 22.8216 10.9501C22.867 9.99499 22.9086 9.03951 22.9278 8.08364C22.9363 7.67169 22.8154 7.27814 22.5884 6.92602C22.3341 6.53132 21.6992 6.21794 21.2982 6.29312C21.336 6.34874 21.371 6.40091 21.4071 6.45269C21.8493 7.08367 22.2398 7.74265 22.336 8.52245C22.4133 9.14768 22.4626 9.7775 22.5038 10.4062C22.5607 11.2711 22.5988 12.1376 22.6446 13.0034ZM10.7116 12.9953L10.7463 12.9976C10.7567 12.8925 10.7713 12.7874 10.7771 12.6819C10.8425 11.5228 10.911 10.364 10.9691 9.20483C11.0149 8.2854 11.2761 7.44269 11.8221 6.69319C11.9176 6.56239 11.9988 6.42124 12.0953 6.27126C11.2492 6.3568 10.8198 6.76031 10.6208 7.30997C10.4715 7.72155 10.4423 8.14425 10.4562 8.57155C10.4819 9.36248 10.5119 10.1534 10.557 10.9432C10.5962 11.6279 10.6593 12.3114 10.7116 12.9953Z" fill="#3D3D3D"/>
</g>
</svg>
