<svg width="334" height="34" viewBox="0 0 334 34" fill="none" xmlns="http://www.w3.org/2000/svg">
<path d="M0 0H274.237L264.946 33.5117H0V0Z" fill="#164F84"/>
<path d="M278.09 0H333.441V33.5117H269.769L278.09 0Z" fill="white"/>
<path d="M86.4482 19.3955C86.4482 19.2178 86.4209 19.0583 86.3662 18.917C86.3161 18.7712 86.2204 18.639 86.0791 18.5205C85.9378 18.3975 85.7396 18.2767 85.4844 18.1582C85.2292 18.0397 84.8988 17.9167 84.4932 17.7891C84.042 17.6432 83.6136 17.4792 83.208 17.2969C82.807 17.1146 82.4515 16.9027 82.1416 16.6611C81.8363 16.415 81.5947 16.1302 81.417 15.8066C81.2438 15.4831 81.1572 15.1071 81.1572 14.6787C81.1572 14.264 81.2484 13.888 81.4307 13.5508C81.613 13.209 81.8682 12.9173 82.1963 12.6758C82.5244 12.4297 82.9118 12.2406 83.3584 12.1084C83.8096 11.9762 84.304 11.9102 84.8418 11.9102C85.5755 11.9102 86.2158 12.0423 86.7627 12.3066C87.3096 12.571 87.7334 12.9333 88.0342 13.3936C88.3395 13.8538 88.4922 14.3802 88.4922 14.9727H86.4551C86.4551 14.681 86.3936 14.4258 86.2705 14.207C86.152 13.9837 85.9697 13.8083 85.7236 13.6807C85.4821 13.5531 85.1768 13.4893 84.8076 13.4893C84.4521 13.4893 84.1559 13.5439 83.9189 13.6533C83.682 13.7581 83.5042 13.9017 83.3857 14.084C83.2673 14.2617 83.208 14.4622 83.208 14.6855C83.208 14.8542 83.249 15.0068 83.3311 15.1436C83.4176 15.2803 83.5452 15.4079 83.7139 15.5264C83.8825 15.6449 84.0898 15.7565 84.3359 15.8613C84.582 15.9661 84.8669 16.0687 85.1904 16.1689C85.7327 16.333 86.209 16.5176 86.6191 16.7227C87.0339 16.9277 87.3802 17.1579 87.6582 17.4131C87.9362 17.6683 88.1458 17.9577 88.2871 18.2812C88.4284 18.6048 88.499 18.9717 88.499 19.3818C88.499 19.8148 88.4147 20.2021 88.2461 20.5439C88.0775 20.8857 87.8337 21.1751 87.5146 21.4121C87.1956 21.6491 86.8151 21.8291 86.373 21.9521C85.931 22.0752 85.4365 22.1367 84.8896 22.1367C84.3975 22.1367 83.9121 22.0729 83.4336 21.9453C82.9551 21.8132 82.5199 21.6149 82.1279 21.3506C81.7406 21.0863 81.4307 20.749 81.1982 20.3389C80.9658 19.9287 80.8496 19.4434 80.8496 18.8828H82.9072C82.9072 19.1927 82.9551 19.4548 83.0508 19.6689C83.1465 19.8831 83.2809 20.0563 83.4541 20.1885C83.6318 20.3206 83.8415 20.4163 84.083 20.4756C84.3291 20.5348 84.598 20.5645 84.8896 20.5645C85.2451 20.5645 85.5368 20.5143 85.7646 20.4141C85.9971 20.3138 86.168 20.1748 86.2773 19.9971C86.3913 19.8193 86.4482 19.6188 86.4482 19.3955ZM95.6631 18.6982H97.707C97.666 19.3682 97.4814 19.9629 97.1533 20.4824C96.8298 21.002 96.3763 21.4076 95.793 21.6992C95.2142 21.9909 94.5169 22.1367 93.7012 22.1367C93.0632 22.1367 92.4912 22.0273 91.9854 21.8086C91.4795 21.5853 91.0465 21.2663 90.6865 20.8516C90.3311 20.4368 90.0599 19.9355 89.873 19.3477C89.6862 18.7598 89.5928 18.1012 89.5928 17.3721V16.6816C89.5928 15.9525 89.6885 15.2939 89.8799 14.7061C90.0758 14.1136 90.3538 13.61 90.7139 13.1953C91.0785 12.7806 91.5137 12.4616 92.0195 12.2383C92.5254 12.015 93.0905 11.9033 93.7148 11.9033C94.5443 11.9033 95.2438 12.0537 95.8135 12.3545C96.3877 12.6553 96.832 13.07 97.1465 13.5986C97.4655 14.1273 97.6569 14.7288 97.7207 15.4033H95.6699C95.6471 15.0023 95.5674 14.6628 95.4307 14.3848C95.2939 14.1022 95.0866 13.8903 94.8086 13.749C94.5352 13.6032 94.1706 13.5303 93.7148 13.5303C93.373 13.5303 93.0745 13.5941 92.8193 13.7217C92.5641 13.8493 92.3499 14.043 92.1768 14.3027C92.0036 14.5625 91.8737 14.8906 91.7871 15.2871C91.7051 15.679 91.6641 16.1393 91.6641 16.668V17.3721C91.6641 17.887 91.7028 18.3405 91.7803 18.7324C91.8577 19.1198 91.9762 19.4479 92.1357 19.7168C92.2998 19.9811 92.5094 20.1816 92.7646 20.3184C93.0244 20.4505 93.3366 20.5166 93.7012 20.5166C94.1296 20.5166 94.4827 20.4482 94.7607 20.3115C95.0387 20.1748 95.2507 19.972 95.3965 19.7031C95.5469 19.4342 95.6357 19.0993 95.6631 18.6982ZM107.229 16.791V17.2627C107.229 18.0192 107.127 18.6982 106.922 19.2998C106.717 19.9014 106.427 20.4141 106.054 20.8379C105.68 21.2572 105.233 21.5785 104.714 21.8018C104.199 22.0251 103.627 22.1367 102.998 22.1367C102.374 22.1367 101.802 22.0251 101.282 21.8018C100.767 21.5785 100.321 21.2572 99.9424 20.8379C99.5641 20.4141 99.2702 19.9014 99.0605 19.2998C98.8555 18.6982 98.7529 18.0192 98.7529 17.2627V16.791C98.7529 16.0299 98.8555 15.3509 99.0605 14.7539C99.2656 14.1523 99.555 13.6396 99.9287 13.2158C100.307 12.792 100.754 12.4684 101.269 12.2451C101.788 12.0218 102.36 11.9102 102.984 11.9102C103.613 11.9102 104.185 12.0218 104.7 12.2451C105.22 12.4684 105.666 12.792 106.04 13.2158C106.418 13.6396 106.71 14.1523 106.915 14.7539C107.125 15.3509 107.229 16.0299 107.229 16.791ZM105.158 17.2627V16.7773C105.158 16.2487 105.11 15.7839 105.015 15.3828C104.919 14.9818 104.778 14.6445 104.591 14.3711C104.404 14.0977 104.176 13.8926 103.907 13.7559C103.638 13.6146 103.331 13.5439 102.984 13.5439C102.638 13.5439 102.33 13.6146 102.062 13.7559C101.797 13.8926 101.572 14.0977 101.385 14.3711C101.202 14.6445 101.063 14.9818 100.968 15.3828C100.872 15.7839 100.824 16.2487 100.824 16.7773V17.2627C100.824 17.7868 100.872 18.2516 100.968 18.6572C101.063 19.0583 101.205 19.3978 101.392 19.6758C101.578 19.9492 101.806 20.1566 102.075 20.2979C102.344 20.4391 102.652 20.5098 102.998 20.5098C103.344 20.5098 103.652 20.4391 103.921 20.2979C104.19 20.1566 104.415 19.9492 104.598 19.6758C104.78 19.3978 104.919 19.0583 105.015 18.6572C105.11 18.2516 105.158 17.7868 105.158 17.2627ZM108.706 12.0469H112.418C113.179 12.0469 113.833 12.1608 114.38 12.3887C114.931 12.6165 115.355 12.9538 115.651 13.4004C115.948 13.847 116.096 14.3962 116.096 15.0479C116.096 15.5811 116.005 16.0391 115.822 16.4219C115.645 16.8001 115.392 17.1169 115.063 17.3721C114.74 17.6227 114.359 17.8232 113.922 17.9736L113.272 18.3154H110.046L110.032 16.7158H112.432C112.792 16.7158 113.09 16.652 113.327 16.5244C113.564 16.3968 113.742 16.2191 113.86 15.9912C113.983 15.7633 114.045 15.499 114.045 15.1982C114.045 14.8792 113.986 14.6035 113.867 14.3711C113.749 14.1387 113.569 13.9609 113.327 13.8379C113.086 13.7148 112.783 13.6533 112.418 13.6533H110.757V22H108.706V12.0469ZM114.271 22L112.001 17.5635L114.168 17.5498L116.465 21.9043V22H114.271ZM124.354 20.4004V22H119.056V20.4004H124.354ZM119.726 12.0469V22H117.675V12.0469H119.726ZM123.663 16.1006V17.6592H119.056V16.1006H123.663ZM124.347 12.0469V13.6533H119.056V12.0469H124.347ZM133.083 13.749L130.376 22H128.195L131.894 12.0469H133.281L133.083 13.749ZM135.332 22L132.618 13.749L132.399 12.0469H133.801L137.52 22H135.332ZM135.209 18.2949V19.9014H129.952V18.2949H135.209ZM140.5 20.4209L142.482 12.0469H143.59L143.843 13.4414L141.73 22H140.541L140.5 20.4209ZM139.481 12.0469L141.122 20.4209L140.985 22H139.659L137.451 12.0469H139.481ZM145.586 20.3867L147.206 12.0469H149.236L147.035 22H145.709L145.586 20.3867ZM144.212 12.0469L146.208 20.4551L146.153 22H144.964L142.838 13.4346L143.111 12.0469H144.212ZM154.097 13.749L151.39 22H149.209L152.907 12.0469H154.295L154.097 13.749ZM156.346 22L153.632 13.749L153.413 12.0469H154.814L158.533 22H156.346ZM156.223 18.2949V19.9014H150.966V18.2949H156.223ZM159.456 12.0469H163.168C163.929 12.0469 164.583 12.1608 165.13 12.3887C165.681 12.6165 166.105 12.9538 166.401 13.4004C166.698 13.847 166.846 14.3962 166.846 15.0479C166.846 15.5811 166.755 16.0391 166.572 16.4219C166.395 16.8001 166.142 17.1169 165.813 17.3721C165.49 17.6227 165.109 17.8232 164.672 17.9736L164.022 18.3154H160.796L160.782 16.7158H163.182C163.542 16.7158 163.84 16.652 164.077 16.5244C164.314 16.3968 164.492 16.2191 164.61 15.9912C164.733 15.7633 164.795 15.499 164.795 15.1982C164.795 14.8792 164.736 14.6035 164.617 14.3711C164.499 14.1387 164.319 13.9609 164.077 13.8379C163.836 13.7148 163.533 13.6533 163.168 13.6533H161.507V22H159.456V12.0469ZM165.021 22L162.751 17.5635L164.918 17.5498L167.215 21.9043V22H165.021ZM171.48 22H169.313L169.327 20.4004H171.48C172.018 20.4004 172.472 20.2796 172.841 20.0381C173.21 19.792 173.488 19.4342 173.675 18.9648C173.866 18.4954 173.962 17.9281 173.962 17.2627V16.7773C173.962 16.2669 173.907 15.818 173.798 15.4307C173.693 15.0433 173.536 14.7174 173.326 14.4531C173.117 14.1888 172.859 13.9906 172.554 13.8584C172.248 13.7217 171.897 13.6533 171.501 13.6533H169.272V12.0469H171.501C172.166 12.0469 172.775 12.1608 173.326 12.3887C173.882 12.612 174.363 12.9333 174.769 13.3525C175.174 13.7718 175.486 14.2731 175.705 14.8564C175.928 15.4352 176.04 16.0801 176.04 16.791V17.2627C176.04 17.9691 175.928 18.6139 175.705 19.1973C175.486 19.7806 175.174 20.2819 174.769 20.7012C174.368 21.1159 173.887 21.4372 173.326 21.665C172.77 21.8883 172.155 22 171.48 22ZM170.476 12.0469V22H168.425V12.0469H170.476ZM184.209 20.4004V22H178.911V20.4004H184.209ZM179.581 12.0469V22H177.53V12.0469H179.581ZM183.519 16.1006V17.6592H178.911V16.1006H183.519ZM184.202 12.0469V13.6533H178.911V12.0469H184.202ZM188.461 22H186.294L186.308 20.4004H188.461C188.999 20.4004 189.452 20.2796 189.821 20.0381C190.19 19.792 190.468 19.4342 190.655 18.9648C190.847 18.4954 190.942 17.9281 190.942 17.2627V16.7773C190.942 16.2669 190.888 15.818 190.778 15.4307C190.674 15.0433 190.516 14.7174 190.307 14.4531C190.097 14.1888 189.84 13.9906 189.534 13.8584C189.229 13.7217 188.878 13.6533 188.481 13.6533H186.253V12.0469H188.481C189.147 12.0469 189.755 12.1608 190.307 12.3887C190.863 12.612 191.343 12.9333 191.749 13.3525C192.155 13.7718 192.467 14.2731 192.686 14.8564C192.909 15.4352 193.021 16.0801 193.021 16.791V17.2627C193.021 17.9691 192.909 18.6139 192.686 19.1973C192.467 19.7806 192.155 20.2819 191.749 20.7012C191.348 21.1159 190.867 21.4372 190.307 21.665C189.751 21.8883 189.135 22 188.461 22ZM187.456 12.0469V22H185.405V12.0469H187.456Z" fill="white"/>
</svg>
