<svg width="26" height="41" viewBox="0 0 26 41" fill="none" xmlns="http://www.w3.org/2000/svg">
<g style="mix-blend-mode:overlay" clip-path="url(#clip0_2711_859)">
<path d="M15.8213 26.946C16.0552 26.4804 16.289 26.0148 16.5193 25.5569C16.2661 25.1719 16.0114 24.7848 15.7715 24.4202C16.2219 24.3605 16.6601 24.3396 17.0785 24.2386C17.7003 24.0887 18.2361 23.8041 18.3408 23.0591C18.4176 23.517 18.2981 23.901 17.9921 24.2243C17.8228 24.4028 17.6449 24.5726 17.4746 24.7496C17.1243 25.1142 17.0501 25.4233 17.2305 25.7486C17.41 26.0724 17.7933 26.2428 18.1853 26.1734C18.6291 26.0949 18.9733 25.7649 19.018 25.3677C19.0312 25.2504 19.0251 25.1305 19.0246 25.0117C19.0226 21.1829 19.02 17.3541 19.021 13.5253C19.021 13.4294 19.0404 13.3188 19.0902 13.2408C19.4928 12.6089 19.9046 11.9832 20.2833 11.4023C20.6789 12.0117 21.109 12.6635 21.5238 13.3244C21.5807 13.4152 21.5782 13.5523 21.5782 13.6681C21.5772 17.4036 21.5731 21.1391 21.5711 24.8745C21.5711 25.052 21.5716 25.2325 21.6026 25.4064C21.6733 25.8042 22.0266 26.0719 22.4658 26.0821C22.9101 26.0928 23.266 25.868 23.3362 25.4681C23.3662 25.2988 23.3118 25.0724 23.2121 24.9312C23.0032 24.6359 22.7347 24.3829 22.4983 24.1065C22.233 23.7965 22.1552 23.4747 22.2279 23.0473C22.236 23.0499 22.2508 23.0509 22.2513 23.055C22.4287 24.03 23.1928 24.2172 23.9904 24.3483C24.2136 24.385 24.4439 24.3783 24.7144 24.3942C24.5125 24.7098 24.3346 25.0235 24.1206 25.3095C23.9991 25.4727 24.0077 25.59 24.0977 25.7573C24.3163 26.1632 24.5146 26.5804 24.7403 27.0317C24.6544 27.023 24.629 27.0271 24.6112 27.0179C23.9935 26.7048 23.3941 26.7849 22.7912 27.0755C21.8375 27.5355 21.1023 28.2179 20.6118 29.1613C20.5192 29.3393 20.4298 29.5193 20.3225 29.7314C20.1984 29.4989 20.0963 29.2903 19.9788 29.0904C19.3245 27.9731 18.3835 27.2239 17.1329 26.8802C16.7994 26.7884 16.4654 26.7991 16.137 26.9164C16.0526 26.9465 15.9682 26.9751 15.8838 27.0047C15.8625 26.9853 15.8416 26.9664 15.8203 26.947L15.8213 26.946Z" fill="#3D3D3D"/>
<path d="M19.9268 33.338C19.7565 34.6772 19.4601 35.9791 18.8109 37.1887C18.8201 37.125 18.8277 37.0612 18.8394 36.998C18.8531 36.923 18.8745 36.8496 18.8846 36.7741C19.0448 35.6007 19.2349 34.4298 19.3473 33.2518C19.3935 32.7638 19.3218 32.2492 19.2171 31.7658C19.0285 30.8983 18.4647 30.5225 17.5725 30.5562C17.8958 30.4006 18.2197 30.2446 18.543 30.089C18.1165 29.6556 17.3742 29.6347 16.9986 30.0447C16.5629 30.5194 16.6447 30.9233 17.3082 31.5088C16.2695 31.7852 15.4292 32.3925 14.5771 33.0244C14.7398 32.7862 14.9 32.546 15.0667 32.3104C15.1643 32.1722 15.2645 32.034 15.3773 31.9086C15.7439 31.5001 15.8913 31.0161 15.8532 30.4792C15.8344 30.213 15.9299 30.0151 16.0769 29.8045C16.3855 29.3634 16.6707 28.9049 16.9518 28.4454C17.0245 28.3266 17.0458 28.1762 17.1018 28.0063C17.144 28.0961 17.1734 28.1593 17.2034 28.2226C17.3687 28.5693 17.6325 28.8187 17.994 28.9309C19.2649 29.3256 19.968 30.2237 20.2827 31.4782C20.2867 31.494 20.2969 31.5078 20.2776 31.4685C20.4738 31.0564 20.6655 30.6005 20.9034 30.1701C21.2191 29.5985 21.7107 29.2246 22.3355 29.0304C22.8485 28.8712 23.2841 28.6214 23.4463 28.015C23.5394 28.2537 23.606 28.4633 23.702 28.6581C23.7986 28.8544 23.9232 29.0375 24.0391 29.2241C24.0879 29.3032 24.1382 29.3832 24.2013 29.4511C24.5393 29.8172 24.7529 30.2109 24.6918 30.7474C24.643 31.1758 24.8622 31.545 25.1245 31.8826C25.4305 32.2763 25.7198 32.6832 26.0004 33.1034C25.158 32.4374 24.3136 31.7831 23.2109 31.5001C23.5317 31.2722 23.8673 31.0539 23.7834 30.6301C23.7366 30.395 23.6187 30.1446 23.459 29.9687C23.1423 29.6194 22.3782 29.6959 22.0193 30.0737C22.3147 30.2196 22.6095 30.3649 22.9674 30.5419C22.6909 30.5623 22.4875 30.5516 22.2969 30.5959C21.73 30.7285 21.3915 31.1457 21.2984 31.7683C21.1337 32.8709 21.1973 33.9688 21.3777 35.0612C21.488 35.7282 21.6268 36.3912 21.7514 37.0556C21.7575 37.0878 21.7524 37.1219 21.7524 37.228C21.1383 36.026 20.8785 34.794 20.6487 33.541C20.6436 33.6323 20.6391 33.7241 20.6335 33.8153C20.6269 33.9168 20.6157 34.0183 20.6126 34.1203C20.5867 34.925 20.5033 35.7359 20.6955 36.5278C20.789 36.9139 20.9761 37.2775 21.1413 37.7043C20.5669 38.6615 20.482 39.8451 20.2751 40.9997C20.0412 39.8569 19.9543 38.6773 19.3269 37.6273C19.878 37.0786 19.968 36.3432 20.0071 35.6191C20.0453 34.9097 19.9838 34.1947 19.9634 33.4823C19.9619 33.4339 19.9405 33.3859 19.9283 33.338H19.9268Z" fill="#3D3D3D"/>
<path d="M20.4353 10.0445C20.3987 10.3801 20.3616 10.7161 20.325 11.0517C20.3072 11.0537 20.2894 11.0558 20.2716 11.0583C20.2187 10.7044 20.1659 10.351 20.1013 9.91959C19.8634 10.9859 19.5228 11.9411 19.0235 12.7815C18.7861 10.988 18.5452 9.16637 18.3047 7.35243C18.4425 7.47686 18.595 7.61506 18.7612 7.7655C19.2493 5.18254 19.7317 2.63017 20.2142 0.0778102C20.2523 0.0762803 20.2909 0.0747504 20.3291 0.0737305C20.8018 2.65414 21.2751 5.23456 21.749 7.81956C21.8964 7.66657 22.053 7.50389 22.209 7.34121L22.2558 7.36569C22.1191 8.2668 21.964 9.16586 21.8511 10.07C21.7368 10.9859 21.6646 11.9074 21.572 12.8391C20.9991 11.986 20.6727 11.0328 20.4348 10.0445H20.4353Z" fill="#3D3D3D"/>
<path d="M5.71323 29.6994C5.3233 29.0869 4.92168 28.4638 4.53176 27.834C4.48397 27.7565 4.48651 27.6397 4.48651 27.5407C4.48651 23.7461 4.49007 19.9515 4.48956 16.1568C4.48956 15.963 4.48651 15.7637 4.44177 15.577C4.34467 15.1721 3.9517 14.8896 3.53991 14.8972C3.07881 14.9059 2.71481 15.144 2.65787 15.5408C2.63195 15.7203 2.68889 15.9528 2.79259 16.1023C2.99391 16.3924 3.25979 16.6367 3.4906 16.9075C3.76156 17.2247 3.87442 17.5868 3.78241 18.06C3.52669 17.1987 3.04424 16.8198 2.13323 16.7265C1.87345 16.6999 1.61214 16.6831 1.29491 16.6576C1.4942 16.3267 1.67213 16.0049 1.87751 15.7019C1.97258 15.5617 1.97512 15.4633 1.89429 15.3179C1.6706 14.9146 1.46573 14.5 1.2334 14.0517C1.54808 14.1221 1.79312 14.2021 2.04426 14.2271C2.56891 14.2797 3.03916 14.0767 3.49162 13.8442C4.53532 13.3077 5.25213 12.4688 5.71628 11.3311C5.78491 11.4657 5.8327 11.5575 5.87845 11.6503C6.41835 12.7498 7.23582 13.5555 8.36493 14.0405C8.95109 14.2919 9.53064 14.3745 10.1153 14.0282C10.1376 14.0451 10.16 14.0624 10.1829 14.0792C9.94395 14.5627 9.70502 15.0461 9.45947 15.5428C9.69231 15.9059 9.94141 16.295 10.2037 16.704C9.00803 16.6602 7.87282 16.9157 7.65828 18.0111C7.54492 17.6928 7.65117 17.2517 7.93637 16.9253C8.12548 16.7086 8.3385 16.5128 8.52863 16.2966C8.90127 15.8728 8.91703 15.5066 8.59014 15.1752C8.29122 14.8722 7.71166 14.862 7.35936 15.1563C7.12398 15.3526 7.0162 15.6025 7.01671 15.9136C7.02281 19.4874 7.00909 23.0617 7.03959 26.6356C7.04569 27.3286 6.92876 27.9074 6.46766 28.4475C6.15552 28.8136 5.9603 29.2802 5.71374 29.7004L5.71323 29.6994Z" fill="#3D3D3D"/>
<path d="M4.86721 3.35556C5.42084 2.36266 5.53319 1.18566 5.73756 0C5.84991 0.609916 5.94955 1.18872 6.06445 1.76498C6.18036 2.34787 6.34965 2.91342 6.68568 3.43307C6.08681 4.18833 6.05377 5.09504 6.04716 6.00583C6.04411 6.41329 6.0614 6.82075 6.07563 7.2277C6.08122 7.38426 6.10562 7.54031 6.1407 7.69585C6.32118 6.35669 6.59672 5.05016 7.22863 3.84206C7.1234 4.42801 7.00698 5.01192 6.91445 5.5999C6.73906 6.7157 6.60434 7.83558 6.73551 8.96719C6.76245 9.20024 6.81532 9.43686 6.89819 9.65615C7.13001 10.2727 7.66025 10.5522 8.43095 10.5195C8.11118 10.673 7.79141 10.827 7.47164 10.9805C7.8514 11.3865 8.5738 11.4318 8.94136 11.0687C9.17267 10.8398 9.31298 10.5414 9.20877 10.2401C9.11878 9.98048 8.89967 9.7663 8.74309 9.54039C9.72172 9.26858 10.5677 8.64948 11.4238 8.00489C11.2077 8.30883 11.0181 8.63724 10.7695 8.9116C10.2753 9.45675 10.0278 10.0692 10.0862 10.8107C10.0954 10.9285 10.0161 11.0687 9.94388 11.1753C9.73443 11.4828 9.4838 11.7643 9.29417 12.0826C9.11929 12.3763 9.00287 12.7052 8.85595 13.0296C8.8285 12.9678 8.79647 12.8868 8.75733 12.8087C8.60075 12.4987 8.35367 12.2779 8.02984 12.1738C6.79397 11.7781 6.09647 10.905 5.78738 9.67655C5.77925 9.64493 5.76501 9.61433 5.7706 9.62963C5.5947 9.9968 5.42491 10.3981 5.21596 10.7781C4.8662 11.4135 4.33901 11.8398 3.63643 12.0438C3.11433 12.1953 2.70813 12.4839 2.52664 13.0464C2.3726 12.2743 1.84033 11.7348 1.41888 11.1269C1.335 11.0065 1.28976 10.828 1.29738 10.6802C1.3289 10.0646 1.15097 9.53733 0.75545 9.06255C0.474825 8.72598 0.240971 8.35013 0 7.97327C0.84035 8.64234 1.68883 9.29305 2.79201 9.56843C2.49207 9.79843 2.16773 10.0024 2.22111 10.4032C2.2511 10.6261 2.34617 10.8668 2.48343 11.0427C2.77473 11.4145 3.52306 11.3885 4.00297 11.0106C3.67049 10.8433 3.34665 10.6802 2.98266 10.4971C3.21498 10.4971 3.39597 10.521 3.56882 10.4925C4.14328 10.3981 4.52609 10.0565 4.64556 9.48939C4.73758 9.05337 4.78537 8.60103 4.79197 8.15482C4.81282 6.74936 4.5871 5.37093 4.27292 4.00576C4.26174 3.95782 4.2536 3.90887 4.26021 3.85634C4.89619 5.00478 5.19156 6.25776 5.38576 7.54592C5.46507 6.50713 5.57589 5.46782 5.34052 4.44433C5.25562 4.07613 5.03803 3.73905 4.86671 3.35658L4.86721 3.35556Z" fill="#3D3D3D"/>
<path d="M5.63508 40.9953C5.15975 38.4231 4.68442 35.8508 4.21366 33.2995C4.06521 33.4362 3.89948 33.5886 3.7002 33.7717C3.85068 32.8834 4.01336 32.0378 4.13232 31.1862C4.2528 30.3244 4.32957 29.4569 4.43023 28.5533C5.0291 29.309 5.31328 30.1831 5.59645 31.0608C5.62797 30.7165 5.65949 30.3728 5.69101 30.0286C5.71083 30.0291 5.73015 30.0301 5.74998 30.0306C5.79675 30.3687 5.84301 30.7068 5.88978 31.0444C6.1277 30.0469 6.47848 29.0897 6.98585 28.2422C7.2075 30.0367 7.43322 31.8624 7.6564 33.6692C7.5354 33.5535 7.38441 33.4096 7.22478 33.2567C6.73166 35.8554 6.24361 38.4251 5.75557 40.9953C5.71592 40.9953 5.67626 40.9948 5.63661 40.9943L5.63508 40.9953Z" fill="#3D3D3D"/>
</g>
<defs>
<clipPath id="clip0_2711_859">
<rect width="26" height="41" fill="white"/>
</clipPath>
</defs>
</svg>
