<svg width="24" height="24" viewBox="0 0 24 24" fill="none" xmlns="http://www.w3.org/2000/svg">
<path d="M23.7666 9.6498H22.8V9.6H12V14.4H18.7818C17.7924 17.1942 15.1338 19.2 12 19.2C8.02379 19.2 4.79999 15.9762 4.79999 12C4.79999 8.0238 8.02379 4.8 12 4.8C13.8354 4.8 15.5052 5.4924 16.7766 6.6234L20.1708 3.2292C18.0276 1.2318 15.1608 0 12 0C5.37299 0 0 5.373 0 12C0 18.627 5.37299 24 12 24C18.627 24 24 18.627 24 12C24 11.1954 23.9172 10.41 23.7666 9.6498Z" fill="#FFC107"/>
<path d="M12.0001 24C15.0996 24 17.916 22.8138 20.0454 20.8848L16.3314 17.742C15.0862 18.689 13.5645 19.2012 12.0001 19.2C8.87886 19.2 6.22866 17.2098 5.23026 14.4324L1.31707 17.4474C3.30306 21.3336 7.33626 24 12.0001 24Z" fill="#4CAF50"/>
<path d="M23.7666 9.6499H22.8V9.6001H12V14.4001H18.7818C18.3085 15.7299 17.456 16.892 16.3296 17.7427L16.3314 17.7415L20.0454 20.8843C19.7826 21.1231 24 18.0001 24 12.0001C24 11.1955 23.9172 10.4101 23.7666 9.6499Z" fill="#1976D2"/>
<path d="M1.38354 6.4146L5.32613 9.306C6.39293 6.6648 8.97652 4.8 11.9999 4.8C13.8353 4.8 15.5051 5.4924 16.7765 6.6234L20.1707 3.2292C18.0275 1.2318 15.1607 0 11.9999 0C7.39073 0 3.39353 2.6022 1.38354 6.4146Z" fill="#FF3D00"/>
</svg>
